<svg xmlns="http://www.w3.org/2000/svg" height="100%" width="100%"  xmlns:xlink="http://www.w3.org/1999/xlink" viewBox="0 0 1024 1002.81201171875"><rect id="svgEditorBackground" x="0" y="0" width="1024" height="1002.81201171875" style="fill: none; stroke: none;"/>
  <path d="M512,0c-282.75,0,-512,229.25,-512,512c0,226.25,146.688,418.125,350.156,485.812c25.593999999999994,4.687999999999988,34.93799999999999,-11.125,34.93799999999999,-24.625c0,-12.187999999999988,-0.4689999999999941,-52.56200000000001,-0.7189999999999941,-95.31200000000001c-142.375,30.937000000000012,-172.469,-60.375,-172.469,-60.375c-23.312000000000012,-59.125,-56.843999999999994,-74.875,-56.843999999999994,-74.875c-46.531000000000006,-31.75,3.530000000000001,-31.125,3.530000000000001,-31.125c51.406000000000006,3.562000000000012,78.47,52.75,78.47,52.75c45.68799999999999,78.25,119.875,55.625,149,42.5c4.653999999999996,-33,17.903999999999996,-55.625,32.5,-68.375c-113.656,-12.937000000000012,-233.21800000000002,-56.875,-233.21800000000002,-253.063c0,-55.93799999999999,19.968999999999994,-101.56200000000001,52.656000000000006,-137.406c-5.218999999999994,-13,-22.843999999999994,-65.094,5.062000000000012,-135.562c0,0,42.93799999999999,-13.75,140.812,52.5c40.81200000000001,-11.406000000000006,84.594,-17.031000000000006,128.125,-17.218999999999994c43.5,0.18799999999998818,87.31200000000001,5.875,128.188,17.281000000000006c97.68799999999999,-66.31200000000001,140.688,-52.5,140.688,-52.5c28,70.531,10.375,122.56200000000001,5.125,135.5c32.81200000000001,35.843999999999994,52.625,81.469,52.625,137.406c0,196.688,-119.75,240,-233.812,252.688c18.437999999999988,15.875,34.75,47,34.75,94.75c0,68.43799999999999,-0.6879999999999882,123.625,-0.6879999999999882,140.5c0,13.625,9.312000000000012,29.562000000000012,35.25,24.562000000000012c203.313,-67.81200000000001,349.875,-259.687,349.875,-485.812c0,-282.75,-229.25,-512,-512,-512Z" style="fill: rgb(114, 114, 114);"/>
</svg>